<svg width="100%" viewBox="0 0 680 780" xmlns="http://www.w3.org/2000/svg">
<defs>
  <marker id="arrow" viewBox="0 0 10 10" refX="8" refY="5" markerWidth="6" markerHeight="6" orient="auto-start-reverse">
    <path d="M2 1L8 5L2 9" fill="none" stroke="context-stroke" stroke-width="1.5" stroke-linecap="round" stroke-linejoin="round"/>
  </marker>
</defs>
<rect width="680" height="780" fill="#0f1117" rx="12"/>
<text x="340" y="36" text-anchor="middle" font-family="monospace" font-size="15" font-weight="700" fill="#e2e8f0">HELIX — System Architecture</text>
<text x="340" y="54" text-anchor="middle" font-family="monospace" font-size="11" fill="#64748b">Hierarchical Execution and Lifecycle Intelligence eXecutor</text>
<text x="22" y="130" text-anchor="middle" font-family="monospace" font-size="10" fill="#64748b" transform="rotate(-90,22,130)">Hardware</text>
<text x="22" y="272" text-anchor="middle" font-family="monospace" font-size="10" fill="#64748b" transform="rotate(-90,22,272)">Sensing</text>
<text x="22" y="450" text-anchor="middle" font-family="monospace" font-size="10" fill="#64748b" transform="rotate(-90,22,450)">Recovery</text>
<text x="22" y="630" text-anchor="middle" font-family="monospace" font-size="10" fill="#64748b" transform="rotate(-90,22,630)">Intelligence</text>
<rect x="42" y="68" width="610" height="100" rx="8" fill="none" stroke="#2a2d3e" stroke-width="0.8" stroke-dasharray="5 3"/>
<text x="56" y="63" font-family="monospace" font-size="10" fill="#64748b">ROS 2 Humble node graph  ·  GO2 + Jetson Orin</text>
<rect x="56" y="80" width="128" height="48" rx="6" fill="#1a1d2e" stroke="#2a2d3e" stroke-width="0.8"/>
<text x="120" y="100" text-anchor="middle" font-family="monospace" font-size="12" font-weight="600" fill="#e2e8f0">Navigation</text>
<text x="120" y="116" text-anchor="middle" font-family="monospace" font-size="10" fill="#64748b">Nav2 + SLAM</text>
<rect x="204" y="80" width="128" height="48" rx="6" fill="#1a1d2e" stroke="#2a2d3e" stroke-width="0.8"/>
<text x="268" y="100" text-anchor="middle" font-family="monospace" font-size="12" font-weight="600" fill="#e2e8f0">Perception</text>
<text x="268" y="116" text-anchor="middle" font-family="monospace" font-size="10" fill="#64748b">Camera / LiDAR</text>
<rect x="352" y="80" width="128" height="48" rx="6" fill="#1a1d2e" stroke="#2a2d3e" stroke-width="0.8"/>
<text x="416" y="100" text-anchor="middle" font-family="monospace" font-size="12" font-weight="600" fill="#e2e8f0">Control</text>
<text x="416" y="116" text-anchor="middle" font-family="monospace" font-size="10" fill="#64748b">GO2 SDK bridge</text>
<rect x="500" y="80" width="138" height="48" rx="6" fill="#1a1d2e" stroke="#2a2d3e" stroke-width="0.8"/>
<text x="569" y="100" text-anchor="middle" font-family="monospace" font-size="12" font-weight="600" fill="#e2e8f0">Comms / DDS</text>
<text x="569" y="116" text-anchor="middle" font-family="monospace" font-size="10" fill="#64748b">ROS 2 middleware</text>
<text x="120" y="142" text-anchor="middle" font-family="monospace" font-size="9" fill="#475569">heartbeat</text>
<line x1="120" y1="128" x2="120" y2="168" stroke="#334155" stroke-width="0.8" marker-end="url(#arrow)"/>
<text x="268" y="142" text-anchor="middle" font-family="monospace" font-size="9" fill="#475569">heartbeat</text>
<line x1="268" y1="128" x2="268" y2="168" stroke="#334155" stroke-width="0.8" marker-end="url(#arrow)"/>
<text x="416" y="142" text-anchor="middle" font-family="monospace" font-size="9" fill="#475569">heartbeat</text>
<line x1="416" y1="128" x2="416" y2="168" stroke="#334155" stroke-width="0.8" marker-end="url(#arrow)"/>
<text x="569" y="142" text-anchor="middle" font-family="monospace" font-size="9" fill="#475569">heartbeat</text>
<line x1="569" y1="128" x2="569" y2="168" stroke="#334155" stroke-width="0.8" marker-end="url(#arrow)"/>
<rect x="42" y="168" width="610" height="104" rx="8" fill="none" stroke="#1e3a5f" stroke-width="0.8"/>
<text x="56" y="163" font-family="monospace" font-size="10" fill="#3b82f6">Phase 1 — Fault Sensing</text>
<rect x="56" y="178" width="142" height="52" rx="6" fill="#0c1929" stroke="#1e3a5f" stroke-width="0.8"/>
<text x="127" y="199" text-anchor="middle" font-family="monospace" font-size="12" font-weight="600" fill="#60a5fa">Heartbeat monitor</text>
<text x="127" y="215" text-anchor="middle" font-family="monospace" font-size="10" fill="#3b82f6">Node liveness checks</text>
<line x1="198" y1="204" x2="214" y2="204" stroke="#3b82f6" stroke-width="0.8" marker-end="url(#arrow)"/>
<rect x="214" y="178" width="148" height="52" rx="6" fill="#0c1929" stroke="#1e3a5f" stroke-width="0.8"/>
<text x="288" y="199" text-anchor="middle" font-family="monospace" font-size="12" font-weight="600" fill="#60a5fa">Anomaly detector</text>
<text x="288" y="215" text-anchor="middle" font-family="monospace" font-size="10" fill="#3b82f6">Time-series + Z-score</text>
<line x1="362" y1="204" x2="378" y2="204" stroke="#3b82f6" stroke-width="0.8" marker-end="url(#arrow)"/>
<rect x="378" y="178" width="128" height="52" rx="6" fill="#0c1929" stroke="#1e3a5f" stroke-width="0.8"/>
<text x="442" y="199" text-anchor="middle" font-family="monospace" font-size="12" font-weight="600" fill="#60a5fa">Log parser</text>
<text x="442" y="215" text-anchor="middle" font-family="monospace" font-size="10" fill="#3b82f6">/rosout regex rules</text>
<line x1="506" y1="204" x2="522" y2="204" stroke="#f59e0b" stroke-width="0.8" marker-end="url(#arrow)"/>
<rect x="522" y="178" width="116" height="52" rx="6" fill="#1a1200" stroke="#78350f" stroke-width="0.8"/>
<text x="580" y="199" text-anchor="middle" font-family="monospace" font-size="12" font-weight="600" fill="#fbbf24">Fault bus</text>
<text x="580" y="215" text-anchor="middle" font-family="monospace" font-size="10" fill="#f59e0b">/helix/faults</text>
<text x="127" y="244" text-anchor="middle" font-family="monospace" font-size="9" fill="#475569">node crash</text>
<text x="288" y="244" text-anchor="middle" font-family="monospace" font-size="9" fill="#475569">metric spike</text>
<text x="442" y="244" text-anchor="middle" font-family="monospace" font-size="9" fill="#475569">log pattern</text>
<text x="580" y="244" text-anchor="middle" font-family="monospace" font-size="9" fill="#475569">FaultEvent</text>
<line x1="127" y1="230" x2="127" y2="312" stroke="#334155" stroke-width="0.8" marker-end="url(#arrow)"/>
<line x1="288" y1="230" x2="288" y2="312" stroke="#334155" stroke-width="0.8" marker-end="url(#arrow)"/>
<line x1="442" y1="230" x2="442" y2="312" stroke="#334155" stroke-width="0.8" marker-end="url(#arrow)"/>
<line x1="580" y1="230" x2="580" y2="312" stroke="#f59e0b" stroke-width="1" marker-end="url(#arrow)"/>
<rect x="42" y="312" width="610" height="120" rx="8" fill="none" stroke="#3b1f5e" stroke-width="0.8"/>
<text x="56" y="307" font-family="monospace" font-size="10" fill="#8b5cf6">Phase 2 — Recovery Engine</text>
<rect x="56" y="322" width="148" height="52" rx="6" fill="#13092b" stroke="#3b1f5e" stroke-width="0.8"/>
<text x="130" y="343" text-anchor="middle" font-family="monospace" font-size="12" font-weight="600" fill="#a78bfa">Recovery planner</text>
<text x="130" y="359" text-anchor="middle" font-family="monospace" font-size="10" fill="#8b5cf6">Policy YAML · 3 tiers</text>
<line x1="204" y1="348" x2="220" y2="348" stroke="#8b5cf6" stroke-width="0.8" marker-end="url(#arrow)"/>
<rect x="220" y="322" width="148" height="52" rx="6" fill="#13092b" stroke="#3b1f5e" stroke-width="0.8"/>
<text x="294" y="343" text-anchor="middle" font-family="monospace" font-size="12" font-weight="600" fill="#a78bfa">Action executor</text>
<text x="294" y="359" text-anchor="middle" font-family="monospace" font-size="10" fill="#8b5cf6">8 recovery actions</text>
<line x1="368" y1="348" x2="384" y2="348" stroke="#8b5cf6" stroke-width="0.8" marker-end="url(#arrow)"/>
<rect x="384" y="322" width="148" height="52" rx="6" fill="#13092b" stroke="#3b1f5e" stroke-width="0.8"/>
<text x="458" y="343" text-anchor="middle" font-family="monospace" font-size="12" font-weight="600" fill="#a78bfa">Verification loop</text>
<text x="458" y="359" text-anchor="middle" font-family="monospace" font-size="10" fill="#8b5cf6">Confirm + escalate</text>
<line x1="532" y1="348" x2="548" y2="348" stroke="#10b981" stroke-width="0.8" marker-end="url(#arrow)"/>
<rect x="548" y="322" width="90" height="52" rx="6" fill="#0a1f17" stroke="#065f46" stroke-width="0.8"/>
<text x="593" y="343" text-anchor="middle" font-family="monospace" font-size="12" font-weight="600" fill="#34d399">State DB</text>
<text x="593" y="359" text-anchor="middle" font-family="monospace" font-size="10" fill="#10b981">SQLite</text>
<path d="M458 374 L458 400 L294 400 L294 374" fill="none" stroke="#475569" stroke-width="0.6" stroke-dasharray="4 3" marker-end="url(#arrow)"/>
<text x="376" y="414" text-anchor="middle" font-family="monospace" font-size="9" fill="#475569">retry if failed</text>
<line x1="130" y1="374" x2="130" y2="468" stroke="#8b5cf6" stroke-width="0.8" stroke-dasharray="5 3" marker-end="url(#arrow)"/>
<text x="142" y="430" font-family="monospace" font-size="9" fill="#7c3aed">tier 3</text>
<line x1="593" y1="374" x2="593" y2="468" stroke="#334155" stroke-width="0.6" stroke-dasharray="3 3" marker-end="url(#arrow)"/>
<text x="600" y="430" font-family="monospace" font-size="9" fill="#475569">metrics</text>
<rect x="42" y="468" width="300" height="120" rx="8" fill="none" stroke="#1e3a5f" stroke-width="0.8"/>
<text x="56" y="463" font-family="monospace" font-size="10" fill="#3b82f6">Phase 3 — On-Device LLM</text>
<rect x="56" y="478" width="82" height="98" rx="6" fill="#0c1929" stroke="#1e3a5f" stroke-width="0.8"/>
<text x="97" y="502" text-anchor="middle" font-family="monospace" font-size="11" font-weight="600" fill="#60a5fa">Context</text>
<text x="97" y="518" text-anchor="middle" font-family="monospace" font-size="11" font-weight="600" fill="#60a5fa">builder</text>
<text x="97" y="536" text-anchor="middle" font-family="monospace" font-size="9" fill="#3b82f6">fault + log</text>
<text x="97" y="550" text-anchor="middle" font-family="monospace" font-size="9" fill="#3b82f6">+ history</text>
<line x1="138" y1="527" x2="154" y2="527" stroke="#3b82f6" stroke-width="0.8" marker-end="url(#arrow)"/>
<rect x="154" y="478" width="90" height="98" rx="6" fill="#0c1929" stroke="#1e3a5f" stroke-width="0.8"/>
<text x="199" y="502" text-anchor="middle" font-family="monospace" font-size="11" font-weight="600" fill="#60a5fa">Ollama</text>
<text x="199" y="518" text-anchor="middle" font-family="monospace" font-size="11" font-weight="600" fill="#60a5fa">LLM</text>
<text x="199" y="536" text-anchor="middle" font-family="monospace" font-size="9" fill="#3b82f6">Phi-3 Mini</text>
<text x="199" y="550" text-anchor="middle" font-family="monospace" font-size="9" fill="#3b82f6">offline</text>
<line x1="244" y1="527" x2="260" y2="527" stroke="#3b82f6" stroke-width="0.8" marker-end="url(#arrow)"/>
<rect x="260" y="478" width="72" height="98" rx="6" fill="#0c1929" stroke="#1e3a5f" stroke-width="0.8"/>
<text x="296" y="502" text-anchor="middle" font-family="monospace" font-size="11" font-weight="600" fill="#60a5fa">Diagnosis</text>
<text x="296" y="518" text-anchor="middle" font-family="monospace" font-size="9" fill="#3b82f6">root cause</text>
<text x="296" y="532" text-anchor="middle" font-family="monospace" font-size="9" fill="#3b82f6">confidence</text>
<text x="296" y="546" text-anchor="middle" font-family="monospace" font-size="9" fill="#3b82f6">action</text>
<path d="M296 576 L296 610 L130 610 L130 422" fill="none" stroke="#3b82f6" stroke-width="0.7" stroke-dasharray="5 3" marker-end="url(#arrow)"/>
<text x="210" y="624" text-anchor="middle" font-family="monospace" font-size="9" fill="#3b82f6">confidence-gated override → recovery planner</text>
<rect x="356" y="468" width="296" height="120" rx="8" fill="none" stroke="#065f46" stroke-width="0.8"/>
<text x="370" y="463" font-family="monospace" font-size="10" fill="#10b981">Phase 4 — Web Dashboard</text>
<rect x="370" y="478" width="120" height="98" rx="6" fill="#0a1f17" stroke="#065f46" stroke-width="0.8"/>
<text x="430" y="502" text-anchor="middle" font-family="monospace" font-size="11" font-weight="600" fill="#34d399">FastAPI</text>
<text x="430" y="518" text-anchor="middle" font-family="monospace" font-size="11" font-weight="600" fill="#34d399">backend</text>
<text x="430" y="536" text-anchor="middle" font-family="monospace" font-size="9" fill="#10b981">REST + WebSocket</text>
<text x="430" y="550" text-anchor="middle" font-family="monospace" font-size="9" fill="#10b981">SQLite bridge</text>
<line x1="490" y1="527" x2="506" y2="527" stroke="#10b981" stroke-width="0.8" marker-end="url(#arrow)"/>
<rect x="506" y="478" width="132" height="98" rx="6" fill="#0a1f17" stroke="#065f46" stroke-width="0.8"/>
<text x="572" y="497" text-anchor="middle" font-family="monospace" font-size="11" font-weight="600" fill="#34d399">React dashboard</text>
<text x="572" y="513" text-anchor="middle" font-family="monospace" font-size="9" fill="#10b981">node health grid</text>
<text x="572" y="527" text-anchor="middle" font-family="monospace" font-size="9" fill="#10b981">fault / recovery feed</text>
<text x="572" y="541" text-anchor="middle" font-family="monospace" font-size="9" fill="#10b981">LLM diagnosis panel</text>
<text x="572" y="555" text-anchor="middle" font-family="monospace" font-size="9" fill="#10b981">localhost:8080</text>
<rect x="42" y="650" width="610" height="112" rx="8" fill="#0d0f1a" stroke="#2a2d3e" stroke-width="0.6"/>
<text x="56" y="670" font-family="monospace" font-size="10" fill="#64748b">Fault coverage</text>
<text x="56" y="690" font-family="monospace" font-size="10" font-weight="600" fill="#ef4444">CRASH</text>
<text x="110" y="690" font-family="monospace" font-size="10" fill="#94a3b8">→ heartbeat miss → restart node → fallback topic → LLM</text>
<text x="56" y="708" font-family="monospace" font-size="10" font-weight="600" fill="#f59e0b">ANOMALY</text>
<text x="122" y="708" font-family="monospace" font-size="10" fill="#94a3b8">→ Z-score spike → reduce velocity → safe mode → LLM</text>
<text x="56" y="726" font-family="monospace" font-size="10" font-weight="600" fill="#8b5cf6">NETWORK</text>
<text x="124" y="726" font-family="monospace" font-size="10" fill="#94a3b8">→ DDS loss → reconfigure DDS → standalone mode → LLM</text>
<text x="56" y="744" font-family="monospace" font-size="10" font-weight="600" fill="#3b82f6">LOG_PATTERN</text>
<text x="148" y="744" font-family="monospace" font-size="10" fill="#94a3b8">→ regex match → restart node → safe mode → LLM</text>
<text x="430" y="690" font-family="monospace" font-size="10" fill="#64748b">Detection: &lt;300ms  ·  Tier 1 recovery: &lt;2s</text>
<text x="430" y="708" font-family="monospace" font-size="10" fill="#64748b">LLM inference: 15-45s  ·  68 tests passing</text>
<text x="430" y="726" font-family="monospace" font-size="10" fill="#64748b">ROS 2 Humble  ·  Unitree GO2  ·  Jetson Orin</text>
<text x="430" y="744" font-family="monospace" font-size="10" fill="#475569">github.com/yusufdxb/helix</text>
</svg>
